<svg width="574" height="350" viewBox="0 0 574 350" fill="none" xmlns="http://www.w3.org/2000/svg">
<path d="M21.6615 213.636C18.5708 271.107 59.7422 300.615 119.124 307.625C185.737 315.488 254.132 304.881 320.462 299.488C345.449 297.456 370.518 295.929 395.618 296.056C419.269 296.176 444.873 302.254 468.107 298.89C526.187 290.483 556.118 234.547 547.068 185.763C541.456 155.514 520.381 126.602 483.08 128.526C456.873 129.88 433.638 140.493 408.604 146.243C375.635 153.814 340.597 152.592 308.268 142.743C292.12 137.813 276.719 130.824 261.004 124.701C229.705 112.526 196.606 103.742 162.901 103.259C129.207 102.766 94.7538 111.027 67.5078 130.35C38.7737 150.728 23.3871 181.556 21.6615 213.636Z" stroke="#F0F0F0" stroke-width="4.2643" stroke-miterlimit="10"/>
<path d="M536.305 230.972C539.379 287.746 498.423 316.897 439.351 323.822C373.087 331.589 305.049 321.111 239.066 315.783C214.209 313.776 189.271 312.268 164.302 312.394C140.775 312.512 115.305 318.516 92.1919 315.193C34.4153 306.888 4.6412 251.63 13.644 203.436C17.8501 180.92 27.1379 156.011 48.0158 142.339C69.0147 128.587 93.4404 132.105 116.461 138.076C158.386 148.949 204.065 169.354 248.486 161.369C273.944 156.793 296.132 143.356 320.31 135.315C344.417 127.298 370.174 122.303 395.803 121.931C429.322 121.444 463.594 129.606 490.698 148.694C519.282 168.825 534.588 199.281 536.305 230.972Z" fill="#F0F0F0"/>
<path d="M493.887 278.585C493.887 278.585 470.797 293.761 444.273 280.611L469.08 267.709L493.887 278.585Z" fill="#6F3428"/>
<path d="M323.887 177.15C323.887 177.15 301.421 216.419 308.453 228.018L334.033 214.783L323.887 177.15Z" fill="#6F3428"/>
<path d="M314.214 217.016C311.403 215.058 308.696 212.857 306.095 210.461C300.974 205.728 296.262 200.235 291.967 194.372C291.967 194.362 291.967 194.362 291.967 194.362C289.083 190.428 286.387 186.318 283.89 182.159C276.669 170.16 271.027 157.743 267.014 147.799C262.824 137.426 260.389 129.732 259.741 127.97C259.668 127.765 259.616 127.638 259.584 127.6L271.737 95.0802C277.609 86.3148 280.901 114.763 280.901 114.763C282.521 113.877 284.485 111.277 285.645 109.874C286.951 108.287 287.954 110.799 288.132 111.695C289.145 116.925 284.632 126.869 284.632 126.869L313.608 166.449C315.384 168.874 317.369 171.163 319.522 173.276C320.901 174.64 322.364 175.935 323.89 177.153C326.46 187.331 326.199 206.955 314.214 217.016Z" fill="#F9B384"/>
<path opacity="0.6" d="M314.214 217.016C311.403 215.058 308.697 212.857 306.095 210.461C315.189 200.751 322.145 184.623 323.89 177.153C322.364 175.936 325.269 178.517 323.89 177.153C326.46 187.331 326.199 206.955 314.214 217.016Z" fill="#E28B6D"/>
<path d="M493.891 278.588C478.06 275.714 465.583 275.899 455.051 277.847C451.226 278.558 447.663 279.493 444.277 280.613L441.09 291.258L434.8 312.305L430.714 325.979L426.994 338.396L424.904 345.399H312.616L330.38 237.449L308.457 228.021C309.868 226.083 311.163 223.804 312.365 221.282C319.021 207.306 322.595 186.123 323.891 177.153C330.16 182.178 337.548 185.938 345.605 188.08C355.166 190.622 366.691 192.823 377.475 192.59C377.851 192.58 378.217 192.57 378.583 192.56C403.525 191.655 414.654 198.716 414.654 198.716C420.296 199.758 435.009 205.027 447.851 210.296C453.515 212.604 458.813 214.922 462.825 216.87C473.609 222.119 481.436 231.449 484.341 242.465L493.891 278.588Z" fill="#D9D9D9"/>
<path opacity="0.6" d="M455.05 277.847C451.226 278.558 447.662 279.493 444.277 280.613L451.038 258.009L455.05 277.847Z" fill="#AE5140"/>
<path opacity="0.3" d="M291.967 194.362C289.083 190.428 286.823 186.873 281.403 177.907C289.905 175.195 294.987 186.873 291.967 194.362Z" fill="#D9D9D9"/>
<path opacity="0.6" d="M442.31 287.184L434.799 312.305L430.714 325.979L329.951 333.137L318.498 314.457C392.166 313.043 422.992 303.257 442.31 287.184Z" fill="#AE5140"/>
<path opacity="0.6" d="M267.014 147.799C262.824 137.426 260.389 129.732 259.741 127.97L278.595 117.087C279.316 126.992 270.912 141.108 267.014 147.799Z" fill="#E28B6D"/>
<path d="M386.254 216.932C387.354 220.577 389.72 223.761 392.823 226.061C395.938 228.355 399.689 229.865 403.604 230.516C407.518 231.179 411.591 231.006 415.451 230.043C417.385 229.57 419.264 228.881 421.039 227.994C422.838 227.142 424.51 226.063 426.108 224.873L426.667 225.429C425.226 226.862 423.556 228.1 421.768 229.173C419.955 230.212 418.004 231.056 415.967 231.675C411.886 232.903 407.463 233.15 403.23 232.423C399.008 231.69 394.919 230 391.687 227.319C390.076 225.984 388.664 224.432 387.588 222.695C386.536 220.949 385.774 219.051 385.456 217.094L386.254 216.932Z" fill="#AE5140"/>
<path d="M432.051 179.724L428.927 202.485C427.767 210.987 419.867 217.298 410.672 217.064C400.818 216.821 393.222 209.273 393.222 200.4C393.222 199.534 393.295 198.647 393.441 197.761L394.005 194.43L396.21 181.447L408.624 180.853L432.051 179.724Z" fill="#F9B384"/>
<path d="M388.575 142.225C388.924 138.87 390.606 134.87 392.526 131.244C396.194 124.313 403.295 119.499 411.502 118.396C423.832 116.739 439.772 118.355 448.453 129.391C458.241 141.834 450.107 166.712 439.615 168.834C429.122 170.956 388.575 142.225 388.575 142.225Z" fill="black"/>
<path d="M420.714 185.568C416.523 189.268 406.868 197.927 393.441 197.761L396.21 181.448L408.624 180.854L420.714 185.568Z" fill="#E28B6D"/>
<path d="M438.582 148.091L436.711 157.158L436.252 159.379L434.413 168.3L433.357 173.413L432.051 179.724L425.667 183.299C425.667 183.299 423.922 184.389 420.714 185.568C420.714 185.568 420.714 185.578 420.704 185.578C415.865 187.37 407.705 189.357 397.234 188.071C396.503 187.983 395.813 187.828 395.165 187.613C390.233 186.045 387.705 181.205 386.597 175.176C385.782 170.745 385.719 165.671 386.022 160.772C386.492 153.087 387.861 145.832 388.572 142.228C399.554 133.083 414.549 131.418 425.667 129.392L438.582 148.091Z" fill="#F9B384"/>
<path d="M388.575 142.225C406.069 129.391 429.634 142.393 429.634 142.393C429.634 142.393 426.031 162.606 432.997 160.937C439.963 159.269 447.032 145.755 447.032 145.755L431.087 124.329L396.206 129.929L388.575 142.225Z" fill="black"/>
<path d="M432.095 161.601C435.522 155.991 442.195 154.193 445.781 158.447C449.367 162.702 449.505 176.089 431.868 173.198L432.095 161.601Z" fill="#F9B384"/>
<path d="M402.768 157.17C401.633 160.03 399.876 162.577 398.73 165.256C398.598 165.581 398.428 165.952 398.344 166.239C398.251 166.523 398.203 166.799 398.254 167.008C398.262 167.235 398.4 167.392 398.57 167.578C398.782 167.741 399.043 167.905 399.373 168.021C400.689 168.492 402.319 168.607 403.905 168.754L403.92 169.325C402.314 169.523 400.662 169.701 398.911 169.23C398.473 169.122 398.027 168.907 397.61 168.608C397.216 168.281 396.828 167.808 396.752 167.276C396.633 166.753 396.727 166.263 396.854 165.836C396.981 165.401 397.121 165.079 397.285 164.709C398.572 161.832 400.483 159.408 402.22 156.915L402.768 157.17Z" fill="#E28B6D"/>
<path d="M414.496 157.772C414.068 159.121 412.888 159.984 411.861 159.701C410.834 159.418 410.349 158.095 410.777 156.747C411.205 155.398 412.384 154.535 413.411 154.817C414.438 155.101 414.924 156.424 414.496 157.772Z" fill="black"/>
<path d="M395.924 156.967C396.352 155.619 395.867 154.296 394.84 154.013C393.813 153.729 392.633 154.593 392.205 155.942C391.777 157.29 392.263 158.613 393.29 158.896C394.317 159.18 395.496 158.316 395.924 156.967Z" fill="black"/>
<path d="M407.959 152.57C408.841 151.788 409.886 151.14 411.064 150.706C412.238 150.268 413.564 150.083 414.865 150.23C416.167 150.374 417.404 150.862 418.427 151.555C419.456 152.244 420.296 153.115 420.944 154.076L420.484 154.452C419.556 153.776 418.651 153.135 417.688 152.637C416.727 152.141 415.715 151.798 414.671 151.673C413.626 151.539 412.553 151.636 411.485 151.889C410.417 152.147 409.37 152.572 408.309 153.039L407.959 152.57Z" fill="black"/>
<path d="M398.751 152.649C397.897 151.381 396.502 150.777 395.076 150.78C394.364 150.781 393.649 150.938 392.962 151.217C392.273 151.5 391.621 151.904 390.936 152.369L390.458 152.012C390.865 151.256 391.496 150.578 392.302 150.091C393.103 149.6 394.085 149.316 395.08 149.326C396.072 149.336 397.076 149.626 397.864 150.196C398.655 150.752 399.225 151.592 399.333 152.47L398.751 152.649Z" fill="black"/>
<path d="M396.106 173.538L407.478 173.761C407.478 173.761 401.173 181.731 396.543 174.314L396.106 173.538Z" fill="white"/>
<path d="M434.82 165.879C434.826 164.965 435.001 164.046 435.352 163.159C435.699 162.274 436.251 161.413 437.072 160.733C437.882 160.052 439.025 159.621 440.143 159.672C441.263 159.706 442.254 160.173 442.999 160.788L442.692 161.282C441.805 161.033 440.952 160.864 440.17 160.954C439.393 161.041 438.701 161.344 438.099 161.827C437.491 162.306 436.997 162.963 436.568 163.677C436.142 164.395 435.794 165.177 435.422 165.987L434.82 165.879Z" fill="#E28B6D"/>
<path opacity="0.3" d="M420.647 176.521C425.071 176.521 428.657 173.178 428.657 169.055C428.657 164.932 425.071 161.589 420.647 161.589C416.223 161.589 412.637 164.932 412.637 169.055C412.637 173.178 416.223 176.521 420.647 176.521Z" fill="#D9D9D9"/>
<path opacity="0.3" d="M392.218 168.047C392.218 171.387 389.846 174.221 386.596 175.176C385.781 170.744 385.719 165.67 386.022 160.772C389.575 161.541 392.218 164.502 392.218 168.047Z" fill="#D9D9D9"/>
<path d="M231.048 136.982C231.048 136.982 253.855 147.387 249.628 164.65L234.543 168.585L231.048 136.982Z" fill="black"/>
<path d="M231.048 136.982C233.497 134.735 246.047 121.809 245.609 105.654C245.277 93.4038 251.105 98.9372 251.855 107.391C251.855 107.391 255.059 90.1015 263.896 91.854L261.299 95.167C261.299 95.167 264.65 89.312 267.354 90.8785C270.058 92.445 267.608 97.4547 267.608 97.4547C267.608 97.4547 268.87 93.1117 271.188 92.7801C273.505 92.4484 275.633 99.2538 270.448 117.013C270.448 117.013 276.066 111.822 278.285 110.945C280.504 110.069 280.354 123.655 264.609 138.115C248.864 152.574 237.726 163.758 237.726 163.758L231.048 136.982Z" fill="#F9B384"/>
<path d="M139.152 207.812C139.706 208.61 231.048 136.982 231.048 136.982L249.627 164.65L156.394 266.978L139.152 207.812Z" fill="black"/>
<path d="M264.057 91.9707C262.968 93.5349 261.961 95.1606 261.035 96.8132C260.124 98.4747 259.259 100.157 258.539 101.893C257.775 103.613 257.162 105.386 256.65 107.182L256.275 108.533L255.987 109.902C255.74 110.81 255.688 111.742 255.501 112.666L255.093 112.646C255.119 110.751 255.305 108.841 255.763 106.983C256.213 105.126 256.806 103.296 257.578 101.534C258.365 99.78 259.227 98.0529 260.262 96.4165C261.292 94.7776 262.417 93.1964 263.734 91.7375L264.057 91.9707Z" fill="#E28B6D"/>
<path d="M267.805 97.5029C267.501 99.0475 267.144 100.58 266.777 102.108C266.422 103.64 266 105.156 265.625 106.683L264.38 111.234C263.942 112.745 263.507 114.257 263.021 115.76L262.622 115.681C262.839 114.119 263.159 112.577 263.492 111.038C263.841 109.503 264.222 107.975 264.62 106.451C265.05 104.935 265.449 103.412 265.922 101.906C266.384 100.398 266.863 98.8938 267.41 97.4063L267.805 97.5029Z" fill="#E28B6D"/>
<path d="M273.347 93.4812C273.941 98.8072 273.682 104.182 272.838 109.479C272.606 110.801 272.361 112.123 272.019 113.427C271.858 114.081 271.682 114.732 271.481 115.378L271.337 115.864L271.271 116.089C271.28 116.067 271.276 116.012 271.25 115.977C271.22 115.905 271.082 115.885 271.013 115.933L271.379 115.63C272.451 114.747 273.53 113.871 274.625 113.01L276.288 111.733C276.582 111.516 276.824 111.331 277.172 111.096C277.662 110.783 278.369 110.837 278.801 111.227C279.02 111.397 279.165 111.732 279.19 111.912L279.295 112.43C279.334 112.776 279.398 113.123 279.402 113.469C279.423 113.816 279.436 114.162 279.414 114.506C279.407 114.851 279.393 115.195 279.344 115.535C279.213 116.903 278.867 118.234 278.427 119.526C277.528 122.106 276.227 124.532 274.71 126.814C273.182 129.093 271.445 131.23 269.621 133.293C268.7 134.317 267.716 135.289 266.767 136.288L263.771 139.154L263.479 138.887L266.346 135.935C267.249 134.909 268.187 133.911 269.059 132.866C270.818 130.786 272.488 128.642 273.938 126.376C275.362 124.102 276.646 121.743 277.482 119.249C277.896 118.005 278.216 116.731 278.328 115.446C278.373 115.126 278.383 114.805 278.387 114.485C278.406 114.163 278.391 113.845 278.369 113.527C278.364 113.207 278.301 112.896 278.265 112.581L278.17 112.12C278.139 111.972 278.133 111.986 278.085 111.931C278.002 111.852 277.842 111.832 277.738 111.902L276.926 112.482L275.275 113.734C274.183 114.581 273.102 115.447 272.029 116.32L271.589 116.673C271.233 116.939 270.632 116.818 270.42 116.455C270.299 116.279 270.273 116.045 270.327 115.863L270.404 115.608L270.549 115.132C270.75 114.501 270.927 113.863 271.09 113.221C271.427 111.94 271.704 110.645 271.96 109.345C272.44 106.74 272.749 104.104 272.921 101.46C273.091 98.8182 273.155 96.1579 272.941 93.5198L273.347 93.4812Z" fill="#E28B6D"/>
<path d="M102.267 270.009C102.267 270.009 70.7087 258.407 57.8213 280.604C41.6163 308.516 65.9652 341.312 65.9652 341.312H108.799L102.267 270.009Z" fill="#D9D9D9"/>
<path d="M71.3737 279.16C70.569 279.936 69.8834 280.813 69.2669 281.727C68.6455 282.639 68.1319 283.614 67.6655 284.604C66.7408 286.59 66.0358 288.667 65.5469 290.788C64.5621 295.03 64.2475 299.399 64.4661 303.738C64.6692 308.081 65.4519 312.392 66.6151 316.607C67.8023 320.821 69.4521 324.918 71.4139 328.891L71.0486 329.061C70.5139 328.082 69.9488 327.114 69.4705 326.108C69.2265 325.607 68.9618 325.114 68.7347 324.606L68.0422 323.085C67.1745 321.035 66.3926 318.952 65.7346 316.832C64.4536 312.584 63.6297 308.203 63.4271 303.782C63.2215 299.368 63.5628 294.909 64.6873 290.602C65.2443 288.449 66.0081 286.338 67.0218 284.329C67.542 283.332 68.1098 282.352 68.7883 281.436C69.4568 280.517 70.211 279.645 71.0892 278.886L71.3737 279.16Z" fill="black"/>
<path d="M183.672 172.664C194.02 178.551 201.175 175.051 203.265 168.698C205.355 162.344 212.994 138.411 181.058 142.269C181.058 142.269 141.922 127.562 125.361 149.26C110.751 168.402 124.156 181.635 101.832 197.506C86.2657 208.574 68.6189 228.019 103.624 261.273L141.59 251.526L183.672 172.664Z" fill="#350D06"/>
<path d="M171.881 200.417C172.655 203.785 181.03 212.505 184.381 215.776C194.512 225.664 196.747 244.215 167.862 249.885L151.611 214.602L171.881 200.417Z" fill="#6F3428"/>
<path d="M173.322 204.829L169.905 219.487L164.596 242.296L134.973 236.462L141.942 191.73L172.151 204.342L173.322 204.829Z" fill="#F9B384"/>
<path d="M191.549 175.85C191.549 175.85 200.098 184.784 199.798 187.058C199.497 189.332 191.549 193.406 191.549 193.406V175.85Z" fill="#E28B6D"/>
<path d="M173.322 204.829L169.906 219.487C160.794 214.968 154.148 203.787 154.148 203.787L172.152 204.342L173.322 204.829Z" fill="#E28B6D"/>
<path d="M193.552 196.181C192.35 204.673 189.319 211.199 182.841 211.783C164.931 213.4 139.152 194.7 139.152 194.7L140.542 160.457L160.02 149.257L191.545 154.711C191.921 158.577 193.855 170.401 194.168 182.293C194.293 187.084 194.158 191.886 193.552 196.181Z" fill="#F9B384"/>
<path d="M196.498 160.457L192.612 163.246C172.351 148.511 176.55 169.738 174.669 176.536C172.788 183.334 163.186 181.543 155.693 177.15L154.356 186.665L131.838 187.328L130.532 160.73L152.987 144.368L194.555 151.925L196.498 160.457Z" fill="#350D06"/>
<path d="M167.408 259.218C178.468 253.688 175.333 239.253 171.028 234.313C166.722 229.374 148.426 221.084 146.208 205.53C144.973 196.879 154.357 186.666 154.357 186.666L135.321 177.146L115.816 205.729L130.532 254.818L167.408 259.218Z" fill="#350D06"/>
<path d="M181.19 338.442L88.3478 338.501C84.2934 283.094 99.1107 254.763 111.921 240.845C119.988 232.089 132.172 227.755 144.461 229.158C155.15 230.385 164.429 235.119 173.834 255.746L129.884 274.796L158.097 321.096C160.929 325.752 165.035 329.628 169.988 332.336L181.19 338.442Z" fill="black"/>
<path d="M129.884 274.796C129.884 274.796 143.698 326.333 148.818 333.115C154.148 340.176 165.592 338.402 185.537 338.442L160.341 286.123L129.884 274.796Z" fill="#545C70"/>
<path d="M242.595 324.434L238.603 338.127L185.537 338.442H181.19L169.988 332.336C165.035 329.628 160.929 325.752 158.097 321.097L129.884 274.796L173.834 255.746C178.557 266.08 183.301 280.416 188.264 300.284C188.933 302.962 190.929 305.202 193.635 306.303L242.595 324.434Z" fill="black"/>
<path d="M160.341 180.915C158.745 172.664 148.242 171.571 146.413 177.146C144.584 182.721 145.03 192.3 158.223 191.733L160.341 180.915Z" fill="#F9B384"/>
<path d="M156.126 181.564L154.481 179.814C153.935 179.269 153.369 178.744 152.78 178.431C152.18 178.119 151.705 178.029 151.153 178.304C150.587 178.572 150.045 179.143 149.484 179.727L148.936 179.472C149.17 178.671 149.551 177.845 150.409 177.225C150.819 176.902 151.429 176.73 152.012 176.724C152.599 176.753 153.143 176.924 153.572 177.178C154.447 177.68 155.048 178.351 155.54 179.052C156.028 179.755 156.408 180.501 156.662 181.288L156.126 181.564Z" fill="#E28B6D"/>
<path opacity="0.2" d="M193.088 198.899C192.638 198.987 184.215 196.733 184.215 189.339C184.215 185.395 187.919 182.03 192.151 182.03C192.851 182.03 193.53 182.117 194.168 182.293C194.293 187.084 194.185 194.262 193.088 198.899Z" fill="#D9D9D9"/>
<path d="M346.132 338.971H235.689L256.552 255.217H366.996L346.132 338.971Z" fill="#545C70"/>
<path opacity="0.6" d="M346.132 338.971L366.995 255.217C335.428 323.304 288.519 330.85 235.689 338.971" fill="black"/>
<path d="M307.448 299.479C309.129 295.742 307.757 291.643 304.383 290.324C301.008 289.005 296.91 290.966 295.228 294.704C293.547 298.441 294.919 302.54 298.293 303.859C301.668 305.178 305.766 303.217 307.448 299.479Z" fill="white"/>
<path d="M483.023 277.029L482.688 285.541L481.184 323.69V323.739C481.058 326.622 480.243 329.407 478.854 331.92C477.464 334.413 475.478 336.634 473.012 338.397H426.993L330.88 338.699C329.166 338.699 327.411 334.978 329.95 333.137C335.562 329.047 344.349 324.548 350.462 320.905C353.837 318.899 357.86 318.022 361.831 318.499C368.445 319.288 377.986 322.415 389.856 319.152C391.915 318.587 394.005 318.149 396.116 317.847L434.799 312.305L450.024 310.124L450.452 286.087L450.588 278.812C452.04 278.451 453.524 278.13 455.05 277.847C463.044 276.367 472.166 275.909 483.023 277.029Z" fill="#F9B384"/>
<path opacity="0.6" d="M483.023 277.029L482.688 285.541C477.067 283.699 455.353 277.945 450.588 278.811C452.04 278.451 453.524 278.13 455.05 277.847C463.044 276.367 472.166 275.909 483.023 277.029Z" fill="#E28B6D"/>
<path opacity="0.3" d="M481.184 323.69V323.739C481.058 326.622 480.243 329.407 478.854 331.92C477.464 334.413 475.479 336.634 473.012 338.397H459.031C461.476 325.862 471.665 321.966 481.184 323.69Z" fill="#D9D9D9"/>
<path d="M444.18 310.676C445.814 310.061 447.53 309.541 449.31 309.348C451.08 309.089 452.891 309.102 454.672 309.281C456.456 309.455 458.214 309.844 459.887 310.43C461.567 311.006 463.154 311.777 464.584 312.806L464.245 313.282C462.709 312.614 461.079 312.088 459.457 311.649C457.828 311.216 456.169 310.897 454.494 310.725C452.822 310.541 451.13 310.481 449.442 310.589C447.746 310.652 446.072 310.933 444.368 311.22L444.18 310.676Z" fill="#E28B6D"/>
<path d="M558.636 338.481H0.893555V350H558.636V338.481Z" fill="#D3DFFF"/>
<path d="M0.893555 338.501H558.636" stroke="black" stroke-width="6" stroke-miterlimit="10"/>
<path d="M84.3599 135.458C80.0796 113.931 57.886 99.7144 34.7895 103.704C11.693 107.693 -3.56073 128.379 0.719628 149.906C4.99999 171.433 27.1935 185.65 50.29 181.661C56.0703 180.662 61.359 178.618 65.9736 175.776L80.6873 181.755L73.6071 169.754C82.4996 160.874 86.9169 148.318 84.3599 135.458Z" fill="#3B4343"/>
<path d="M26.6218 156.52V144.459L25.8671 144.808C25.0915 145.166 24.2525 145.347 23.3733 145.347C20.2532 145.347 17.7148 142.982 17.7148 140.073C17.7148 137.162 20.2532 134.793 23.3733 134.793C24.2488 134.793 25.0888 134.973 25.8703 135.328L26.6218 135.67V123.621H37.829C37.6528 124.181 37.5638 124.762 37.5638 125.357C37.5638 128.806 40.5742 131.611 44.274 131.611C47.9741 131.611 50.9845 128.806 50.9845 125.357C50.9845 124.762 50.8955 124.181 50.7193 123.621H61.9265V134.163C61.2279 133.935 60.4898 133.819 59.7231 133.819C56.023 133.819 53.0129 136.625 53.0129 140.074C53.0129 143.519 56.0232 146.322 59.7231 146.322C60.4731 146.322 61.222 146.202 61.9265 145.971V156.52H26.6218V156.52Z" fill="white"/>
<path d="M61.4045 124.108V133.513C60.8615 133.393 60.3001 133.332 59.7235 133.332C55.7355 133.332 52.4909 136.356 52.4909 140.073C52.4909 143.787 55.7355 146.808 59.7235 146.808C60.2898 146.808 60.8554 146.745 61.4045 146.622V156.033H27.1447V145.244V143.674L25.6355 144.371C24.933 144.696 24.1721 144.86 23.3738 144.86C20.5418 144.86 18.2377 142.713 18.2377 140.073C18.2377 137.43 20.5418 135.28 23.3738 135.28C24.1694 135.28 24.9322 135.444 25.6416 135.766L27.1444 136.449V134.89V124.107H37.1666C37.0835 124.516 37.0416 124.933 37.0416 125.357C37.0416 129.074 40.2862 132.098 44.2742 132.098C48.2623 132.098 51.5068 129.074 51.5068 125.357C51.5068 124.933 51.4649 124.516 51.3819 124.107L61.4045 124.108ZM62.4493 123.134H49.9785C50.2919 123.82 50.4625 124.569 50.4625 125.357C50.4625 128.539 47.6889 131.124 44.2747 131.124C40.8606 131.124 38.087 128.539 38.087 125.357C38.087 124.57 38.2573 123.82 38.5709 123.134H26.1001V134.891C25.2755 134.516 24.3554 134.306 23.3743 134.306C19.9601 134.306 17.1934 136.885 17.1934 140.073C17.1934 143.256 19.9601 145.834 23.3743 145.834C24.3556 145.834 25.2755 145.625 26.1001 145.244V157.007H62.4496V145.237C61.6319 145.619 60.7049 145.834 59.7238 145.834C56.3028 145.834 53.536 143.256 53.536 140.073C53.536 136.885 56.3028 134.306 59.7238 134.306C60.7052 134.306 61.6319 134.516 62.4496 134.897L62.4493 123.134Z" fill="black"/>
<path d="M488.975 135.938C490.392 114.084 510.548 97.4378 533.995 98.7579C557.442 100.078 575.301 118.864 573.885 140.718C572.469 162.572 552.313 179.218 528.866 177.898C522.998 177.567 517.48 176.143 512.527 173.85L498.71 181.465L504.159 168.745C494.165 160.949 488.129 148.993 488.975 135.938Z" fill="#2C427F"/>
<path d="M538.668 155.044C537.562 152.885 535.231 151.506 532.64 151.506C530.05 151.506 527.724 152.885 526.625 155.044H514.962V142.992L514.253 143.323C513.471 143.687 512.628 143.872 511.746 143.872C508.604 143.872 506.048 141.492 506.048 138.567C506.048 135.639 508.604 133.257 511.746 133.257C512.637 133.257 513.48 133.439 514.253 133.799L514.962 134.13V122.084H527.498L527.269 121.476C527.057 120.912 526.949 120.322 526.949 119.722C526.949 116.794 529.502 114.411 532.64 114.411C535.781 114.411 538.338 116.794 538.338 119.722C538.338 120.322 538.23 120.913 538.017 121.476L537.788 122.084H550.324V155.044L538.668 155.044Z" fill="white"/>
<path d="M532.639 114.868C535.511 114.868 537.847 117.046 537.847 119.722C537.847 120.271 537.749 120.81 537.555 121.325L537.097 122.541H538.48H549.834V154.587H538.969C537.732 152.419 535.315 151.049 532.639 151.049C529.965 151.049 527.552 152.419 526.322 154.587H515.451V143.731V142.253L514.033 142.914C513.32 143.246 512.55 143.415 511.745 143.415C508.874 143.415 506.538 141.24 506.538 138.567C506.538 135.891 508.874 133.714 511.745 133.714C512.559 133.714 513.329 133.88 514.033 134.208L515.451 134.869V133.391V122.541H526.806H528.189L527.731 121.325C527.537 120.81 527.438 120.271 527.438 119.722C527.438 117.046 529.771 114.868 532.639 114.868ZM532.639 113.955C529.225 113.955 526.458 116.54 526.458 119.722C526.458 120.389 526.581 121.03 526.806 121.627H514.471V133.391C513.653 133.009 512.727 132.8 511.745 132.8C508.324 132.8 505.558 135.379 505.558 138.567C505.558 141.749 508.324 144.328 511.745 144.328C512.727 144.328 513.653 144.112 514.471 143.731V155.501H526.942C527.869 153.424 530.07 151.963 532.639 151.963C535.215 151.963 537.416 153.424 538.35 155.501H550.814V121.627H538.479C538.704 121.03 538.827 120.389 538.827 119.722C538.827 116.54 536.06 113.955 532.639 113.955Z" fill="black"/>
<path opacity="0.2" d="M289.118 44.6205C289.118 54.6176 281.784 64.0784 272.054 66.8992H258.892C248.761 64.3141 241.312 54.8834 241.312 44.6205C241.312 32.3163 252.014 22.3419 265.215 22.3419C278.417 22.3419 289.118 32.3163 289.118 44.6205Z" fill="#D9D9D9"/>
<path d="M265.215 0V16.6347" stroke="#D9D9D9" stroke-width="8.5287" stroke-miterlimit="10"/>
<path d="M248.473 21.358L232.829 10.4737" stroke="#D9D9D9" stroke-width="8.5287" stroke-miterlimit="10"/>
<path d="M281.957 21.358L297.6 10.4737" stroke="#D9D9D9" stroke-width="8.5287" stroke-miterlimit="10"/>
<path d="M256.699 18.2775L253.436 10.4737" stroke="#D9D9D9" stroke-width="8.5287" stroke-miterlimit="10"/>
<path d="M273.731 18.2775L276.994 10.4737" stroke="#D9D9D9" stroke-width="8.5287" stroke-miterlimit="10"/>
<path d="M280.499 47.4444C280.499 39.8964 273.237 33.8205 264.448 34.1935C256.651 34.5242 250.271 40.1049 249.944 46.875C249.762 50.6526 251.403 54.093 254.165 56.5975C257.093 59.2537 258.892 62.6946 258.892 66.3712V66.899H272.053V65.805C272.053 62.2926 273.725 58.9924 276.467 56.4089C278.969 54.0505 280.499 50.9049 280.499 47.4444Z" fill="#D9D9D9"/>
<path d="M265.215 77.7929C261.58 77.7929 258.634 75.047 258.634 71.6596V71.3567H271.796V71.6596C271.795 75.0468 268.849 77.7929 265.215 77.7929Z" fill="#D9D9D9"/>
<path opacity="0.8" d="M260.312 48.859C262.308 48.859 263.926 47.3511 263.926 45.491C263.926 43.6309 262.308 42.1229 260.312 42.1229C258.317 42.1229 256.699 43.6309 256.699 45.491C256.699 47.3511 258.317 48.859 260.312 48.859Z" fill="white"/>
<path d="M397.21 81.2691V73.7265H393.348C392.847 71.605 391.935 69.6267 390.692 67.8674L393.46 65.288L387.738 59.9547L384.902 62.5978C383.023 61.504 380.926 60.7081 378.684 60.2863V56.4594H370.591V60.4185C368.434 60.897 366.419 61.7208 364.618 62.8262L361.538 59.9549L355.816 65.2882L358.965 68.2232C357.846 69.8921 357.021 71.7471 356.554 73.727H352.065V81.2695H356.554C357.021 83.2492 357.846 85.1044 358.965 86.773L355.816 89.708L361.538 95.0414L364.618 92.1701C366.419 93.2755 368.434 94.0993 370.591 94.5777V98.5369H378.684V94.71C380.926 94.2881 383.023 93.4922 384.902 92.3984L387.738 95.0416L393.46 89.7083L390.692 87.1288C391.935 85.3695 392.847 83.3912 393.348 81.2697H397.21V81.2691Z" fill="#F0F0F0"/>
<path d="M383.565 85.8243C388.498 81.2267 388.498 73.7725 383.565 69.1749C378.632 64.5773 370.634 64.5773 365.702 69.1749C360.769 73.7725 360.769 81.2267 365.702 85.8243C370.634 90.4219 378.632 90.4219 383.565 85.8243Z" fill="white"/>
<path d="M438.328 69.3663L440.147 64.1732L437.488 63.3643C437.655 61.7989 437.504 60.2456 437.072 58.7739L439.599 57.5776L436.946 52.707L434.356 53.9327C433.326 52.7862 432.074 51.7989 430.632 51.0388L431.555 48.4039L425.983 46.7088L425.029 49.4346C423.428 49.3119 421.842 49.4572 420.336 49.8409L418.907 47.2188L413.681 49.6922L415.142 52.3726C413.969 53.2873 412.954 54.3916 412.155 55.6568L409.065 54.7165L407.246 59.9097L410.336 60.8499C410.18 62.3107 410.301 63.7607 410.669 65.1441L407.793 66.5053L410.447 71.3759L413.26 70.0444C414.234 71.1827 415.422 72.1719 416.792 72.9532L415.838 75.679L421.409 77.3741L422.332 74.7392C423.978 74.9185 425.614 74.8098 427.171 74.4503L428.486 76.8641L433.711 74.3907L432.428 72.0351C433.708 71.0843 434.813 69.9131 435.669 68.5574L438.328 69.3663Z" fill="#F0F0F0"/>
<path d="M432.089 65.4271C434.091 61.1036 431.954 56.0859 427.316 54.2196C422.677 52.3534 417.293 54.3454 415.291 58.6689C413.289 62.9923 415.426 68.0101 420.065 69.8763C424.703 71.7426 430.087 69.7506 432.089 65.4271Z" fill="white"/>
<path d="M180.184 84.5624L184.265 79.3688L181.605 77.5536C182.409 75.8576 182.851 74.0668 182.947 72.2712L186.248 71.7959L185.193 65.4341L181.811 65.9213C181.109 64.2851 180.095 62.7515 178.78 61.4072L180.85 58.772L175.278 54.9684L173.136 57.6945C171.392 57.0098 169.559 56.63 167.721 56.5448L167.153 53.1198L160.328 54.1028L160.908 57.6036C159.235 58.2268 157.663 59.1164 156.27 60.2602L153.18 58.1506L149.099 63.3441L152.189 65.4538C151.44 67.0365 151.004 68.7014 150.871 70.3762L147.115 70.9171L148.17 77.2788L151.845 76.7496C152.486 78.357 153.428 79.8713 154.655 81.2149L152.513 83.9409L158.085 87.7445L160.156 85.1094C161.928 85.8727 163.802 86.3105 165.688 86.4402L166.21 89.5931L173.036 88.6101L172.526 85.5333C174.334 84.9061 176.032 83.9727 177.525 82.7469L180.184 84.5624Z" fill="#F0F0F0"/>
<path d="M177.451 71.8015C177.722 66.2577 173.12 61.5584 167.172 61.3054C161.224 61.0523 156.183 65.3413 155.911 70.8851C155.64 76.4289 160.241 81.1281 166.189 81.3812C172.137 81.6342 177.179 77.3453 177.451 71.8015Z" fill="white"/>
<path d="M130.273 73.2286L134.335 70.5078L132.942 68.701C133.904 67.7016 134.641 66.5612 135.14 65.345L137.527 65.7093L138.335 61.1082L135.889 60.735C135.8 59.4615 135.472 58.1933 134.89 56.9922L136.951 55.6116L134.032 51.8255L131.9 53.2537C130.864 52.4168 129.693 51.7714 128.449 51.3277L128.884 48.8508L123.947 48.0978L123.502 50.6297C122.2 50.7085 120.904 50.9915 119.669 51.4873L118.05 49.3875L113.988 52.1083L115.607 54.2081C114.709 55.1406 114.008 56.196 113.513 57.3213L110.796 56.907L109.988 61.5079L112.646 61.9133C112.7 63.1543 112.983 64.3943 113.504 65.5762L111.372 67.0043L114.291 70.7903L116.352 69.4097C117.388 70.3063 118.573 71.0006 119.84 71.4848L119.439 73.765L124.376 74.518L124.767 72.2929C126.163 72.2399 127.557 71.9528 128.88 71.4216L130.273 73.2286Z" fill="#F0F0F0"/>
<path d="M126.014 68.3787C130.205 67.4318 132.779 63.4976 131.763 59.5915C130.747 55.6854 126.526 53.2865 122.335 54.2333C118.144 55.1802 115.57 59.1144 116.586 63.0205C117.602 66.9266 121.823 69.3256 126.014 68.3787Z" fill="white"/>
</svg>
