<svg width="171" height="66" viewBox="0 0 171 66" fill="none" xmlns="http://www.w3.org/2000/svg">
<g clip-path="url(#clip0_2_89)">
<path d="M6.25 16C4.5924 16 3.00269 16.6585 1.83058 17.8306C0.65848 19.0027 0 20.5924 0 22.25L0 59.75C0 61.4076 0.65848 62.9973 1.83058 64.1694C3.00269 65.3415 4.5924 66 6.25 66H43.75C45.4076 66 46.9973 65.3415 48.1694 64.1694C49.3415 62.9973 50 61.4076 50 59.75V22.25C50 20.5924 49.3415 19.0027 48.1694 17.8306C46.9973 16.6585 45.4076 16 43.75 16H6.25ZM17.175 34.8531C17.0743 34.8545 16.9743 34.8353 16.8813 34.7967C16.7882 34.7581 16.704 34.7009 16.6338 34.6287C16.5636 34.5564 16.5089 34.4706 16.473 34.3765C16.4371 34.2824 16.4207 34.1819 16.425 34.0812C16.7188 28.7844 21.0531 26.9375 25.0156 26.9375C29.3781 26.9375 33.3656 29.2187 33.3656 33.9375C33.3656 37.3125 31.3812 38.9187 29.4781 40.3656C27.175 42.1125 26.3219 42.7656 26.3219 45.0094V45.3375C26.3219 45.5447 26.2396 45.7434 26.0931 45.8899C25.9465 46.0364 25.7478 46.1187 25.5406 46.1187H23.0094C22.8043 46.1188 22.6075 46.0382 22.4613 45.8944C22.3152 45.7505 22.2314 45.555 22.2281 45.35L22.2156 44.6719C22.0969 41.775 23.7625 39.9906 25.8656 38.4625C27.7094 37.075 28.8812 36.1625 28.8812 34.1781C28.8812 31.6 26.9188 30.5281 24.775 30.5281C22.2656 30.5281 20.8594 32.0219 20.5812 34.0719C20.525 34.5 20.1812 34.8531 19.75 34.8531H17.1719H17.175ZM24.4406 54.9875C22.6156 54.9875 21.2875 53.7562 21.2875 52.0906C21.2875 50.3656 22.6156 49.1531 24.4438 49.1531C26.3469 49.1531 27.6563 50.3656 27.6563 52.0906C27.6563 53.7562 26.3438 54.9875 24.4406 54.9875Z" fill="#21272A"/>
</g>
<path d="M81.65 60.1C80.15 60.1 78.5833 59.8167 76.95 59.25C75.35 58.7167 73.75 58 72.15 57.1C70.5833 56.2 69.1 55.2167 67.7 54.15C66.3 53.1167 65.05 52.0833 63.95 51.05C62.85 50.0167 61.9833 49.0833 61.35 48.25C60.75 47.4167 60.45 46.7833 60.45 46.35C60.45 45.3833 60.5 44.4 60.6 43.4C60.7 42.3667 60.75 41.0833 60.75 39.55V28.35C60.75 25.55 61.3833 23.5667 62.65 22.4C63.9167 21.2333 65.9333 20.65 68.7 20.65C69.6333 20.65 70.6667 20.9333 71.8 21.5C72.9667 22.0667 74.0667 22.7833 75.1 23.65C76.1667 24.4833 77.0333 25.3667 77.7 26.3C78.3667 27.2333 78.7 28.0667 78.7 28.8C78.7 29.4333 78.6833 30.3833 78.65 31.65C78.6167 32.8833 78.5833 34.2833 78.55 35.85C78.55 37.4167 78.5333 38.9833 78.5 40.55C78.4667 42.0833 78.45 43.45 78.45 44.65C78.45 47.2833 77.8 49.3 76.5 50.7C75.2 52.0667 73.2333 52.75 70.6 52.75H70.55C71.5833 53.4833 72.7 54.05 73.9 54.45C75.1 54.8833 76.4833 55.1 78.05 55.1C79.3833 55.1 80.5333 55 81.5 54.8C82.5 54.6333 83.3667 54.3833 84.1 54.05H84.75L86.75 59.15C85.5833 59.7833 83.8833 60.1 81.65 60.1ZM67.4 48C69 48 70.2167 47.7833 71.05 47.35C71.9167 46.8833 72.5167 46.15 72.85 45.15C73.1833 44.1167 73.35 42.75 73.35 41.05C73.35 40.5833 73.35 39.8833 73.35 38.95C73.3833 38.0167 73.4167 36.9667 73.45 35.8C73.5167 34.6333 73.5667 33.4833 73.6 32.35C73.6333 31.1833 73.65 30.15 73.65 29.25C73.6833 28.35 73.7 27.6833 73.7 27.25C73.7 26.55 73.55 26.05 73.25 25.75C72.95 25.45 72.3667 25.3 71.5 25.3C69.8667 25.3 68.6333 25.4667 67.8 25.8C67 26.1333 66.4667 26.6333 66.2 27.3C65.9333 27.9667 65.8 28.8333 65.8 29.9V40.65C65.8 42.2167 65.75 43.5 65.65 44.5C65.5833 45.4667 65.55 46.1667 65.55 46.6C65.55 47.5333 66.1667 48 67.4 48ZM101.853 52.85C101.086 52.55 100.386 52.2333 99.7527 51.9C99.1194 51.5667 98.5194 51.2 97.9527 50.8C97.2527 51.3667 96.4194 51.8333 95.4527 52.2C94.4861 52.5667 93.5861 52.75 92.7527 52.75C92.1527 52.75 91.3361 52.55 90.3027 52.15C89.2694 51.75 88.2194 51.2167 87.1527 50.55C86.0861 49.8833 85.1861 49.1667 84.4527 48.4C83.7194 47.6 83.3527 46.8333 83.3527 46.1C83.3527 45.6 83.3861 44.8 83.4527 43.7C83.5527 42.5667 83.6027 41.2833 83.6027 39.85V36.95C83.6027 36.0833 83.6361 35.2833 83.7027 34.55C83.8027 33.7833 83.9527 33.1167 84.1527 32.55H82.5027L79.8527 29.15L80.2027 28.3H86.6027L89.5027 32.2C89.1027 32.7333 88.8361 33.4 88.7027 34.2C88.6027 35 88.5527 36.0167 88.5527 37.25V40.2C88.5527 42.4 88.5194 44 88.4527 45C88.4194 46 88.4027 46.7 88.4027 47.1C88.4027 48.0333 88.9694 48.5 90.1027 48.5C90.9361 48.5 91.7361 48.35 92.5027 48.05C93.3027 47.7167 93.9527 47.25 94.4527 46.65C94.9861 46.0167 95.2527 45.2667 95.2527 44.4V36.95C95.2527 36.0833 95.2861 35.2833 95.3527 34.55C95.4527 33.7833 95.6027 33.1167 95.8027 32.55H94.1527L91.5027 29.15L91.8527 28.3H98.2527L101.153 32.2C100.753 32.7333 100.486 33.4 100.353 34.2C100.253 35 100.203 36.0167 100.203 37.25V42.6C100.203 44.4333 100.169 45.8167 100.103 46.75C100.036 47.6833 100.003 48.3667 100.003 48.8C100.003 49.3333 100.186 49.8167 100.553 50.25C100.953 50.65 101.603 51.0833 102.503 51.55L101.853 52.85ZM108.716 24.95L105.416 21.4V20.9C106.316 19.7 107.533 18.65 109.066 17.75L112.366 21.2L112.316 21.8C111.649 22.2667 111.016 22.7833 110.416 23.35C109.849 23.9167 109.283 24.45 108.716 24.95ZM113.166 53.1C111.033 52.3 109.383 51.5833 108.216 50.95C107.083 50.2833 106.516 49.6833 106.516 49.15C106.516 48.6833 106.566 47.9667 106.666 47C106.799 46 106.866 45.0333 106.866 44.1V36.95C106.866 36.0833 106.899 35.2833 106.966 34.55C107.066 33.7833 107.216 33.1167 107.416 32.55H105.766L103.116 29.15L103.466 28.3H109.866L112.766 32.2C112.366 32.7333 112.099 33.4 111.966 34.2C111.866 35 111.816 36.0167 111.816 37.25V44.65C111.816 45.85 111.766 46.9167 111.666 47.85C111.566 48.75 111.516 49.4333 111.516 49.9C111.516 50.2333 111.633 50.5 111.866 50.7C112.133 50.8667 112.766 51.2167 113.766 51.75L113.166 53.1ZM118.679 52.1L115.779 47.75C116.279 46.9167 116.979 45.8167 117.879 44.45C118.812 43.0833 119.796 41.6333 120.829 40.1C121.896 38.5333 122.896 37.05 123.829 35.65C124.796 34.25 125.562 33.1167 126.129 32.25H125.279C123.646 32.25 122.346 32.35 121.379 32.55C120.446 32.75 119.679 33.1167 119.079 33.65H118.229L115.179 29.15L115.579 28.3H127.779L131.029 32.75C130.729 33.25 130.262 33.9833 129.629 34.95C129.029 35.9167 128.329 37.0167 127.529 38.25C126.762 39.45 125.962 40.6833 125.129 41.95C124.329 43.1833 123.562 44.35 122.829 45.45C122.129 46.5167 121.562 47.4 121.129 48.1H121.429C122.396 48.1333 123.612 48.1333 125.079 48.1C126.579 48.0333 128.046 47.8833 129.479 47.65L131.879 51.25L131.479 52.1H118.679ZM135.573 52.1L132.673 47.75C133.173 46.9167 133.873 45.8167 134.773 44.45C135.707 43.0833 136.69 41.6333 137.723 40.1C138.79 38.5333 139.79 37.05 140.723 35.65C141.69 34.25 142.457 33.1167 143.023 32.25H142.173C140.54 32.25 139.24 32.35 138.273 32.55C137.34 32.75 136.573 33.1167 135.973 33.65H135.123L132.073 29.15L132.473 28.3H144.673L147.923 32.75C147.623 33.25 147.157 33.9833 146.523 34.95C145.923 35.9167 145.223 37.0167 144.423 38.25C143.657 39.45 142.857 40.6833 142.023 41.95C141.223 43.1833 140.457 44.35 139.723 45.45C139.023 46.5167 138.457 47.4 138.023 48.1H138.323C139.29 48.1333 140.507 48.1333 141.973 48.1C143.473 48.0333 144.94 47.8833 146.373 47.65L148.773 51.25L148.373 52.1H135.573ZM155.15 47.4C154.017 43.8667 153.134 40.9667 152.5 38.7C151.867 36.4 151.55 34.8167 151.55 33.95C151.55 33.35 151.6 32.8833 151.7 32.55H150.5L148.1 29.1L148.5 28.3H154.9L157.2 31.65L156.95 32.3C155.917 32.5 155.4 33.2833 155.4 34.65C155.4 35.45 155.667 36.9167 156.2 39.05C156.767 41.15 157.7 43.9667 159 47.5C160 44.6 160.95 41.8667 161.85 39.3C162.784 36.7 163.584 34.45 164.25 32.55H161.5L159.25 29.1L159.65 28.3H166.4L169.15 32.45C166.984 38.7167 165.134 44.0833 163.6 48.55C162.067 53.0167 160.834 56.4333 159.9 58.8C159 61.2 158.35 62.4 157.95 62.4C157.55 62.4 156.9 62.2 156 61.8C155.134 61.4333 154.234 61 153.3 60.5C152.4 60 151.7 59.5833 151.2 59.25L151.95 57.9C152.284 58.1 152.634 58.2833 153 58.45C153.367 58.65 153.717 58.75 154.05 58.75C154.317 58.75 154.6 58.5333 154.9 58.1C155.2 57.7 155.567 56.95 156 55.85C156.467 54.7833 157.05 53.25 157.75 51.25C157.817 51.0833 157.867 50.9167 157.9 50.75C157.3 50.2833 156.734 49.75 156.2 49.15C155.7 48.55 155.35 47.9667 155.15 47.4Z" fill="black"/>
<defs>
<clipPath id="clip0_2_89">
<rect width="50" height="50" fill="white" transform="translate(0 16)"/>
</clipPath>
</defs>
</svg>
