<svg width="43" height="43" viewBox="0 0 43 43" fill="none" xmlns="http://www.w3.org/2000/svg">
<g clip-path="url(#clip0_15_2117)">
<path d="M7.1665 8.95834H10.7498" stroke="#21272A" stroke-width="2" stroke-linecap="round" stroke-linejoin="round"/>
<path d="M8.9585 7.16666V10.75" stroke="#21272A" stroke-width="2" stroke-linecap="round" stroke-linejoin="round"/>
<path d="M20.6043 7.16666L19.7085 10.75" stroke="#21272A" stroke-width="2" stroke-linecap="round" stroke-linejoin="round"/>
<path d="M32.25 8.95834H35.8333" stroke="#21272A" stroke-width="2" stroke-linecap="round" stroke-linejoin="round"/>
<path d="M34.0415 7.16666V10.75" stroke="#21272A" stroke-width="2" stroke-linecap="round" stroke-linejoin="round"/>
<path d="M26.8752 16.125L25.0835 17.9167" stroke="#21272A" stroke-width="2" stroke-linecap="round" stroke-linejoin="round"/>
<path d="M32.25 23.2917L35.8333 22.3958" stroke="#21272A" stroke-width="2" stroke-linecap="round" stroke-linejoin="round"/>
<path d="M32.25 34.0417H35.8333" stroke="#21272A" stroke-width="2" stroke-linecap="round" stroke-linejoin="round"/>
<path d="M34.0415 32.25V35.8333" stroke="#21272A" stroke-width="2" stroke-linecap="round" stroke-linejoin="round"/>
<path d="M25.0833 29.5947L13.4052 17.9167L5.5398 35.0808C5.38764 35.4141 5.34095 35.7859 5.406 36.1464C5.47106 36.5069 5.64474 36.8389 5.90378 37.098C6.16283 37.357 6.49485 37.5307 6.85537 37.5958C7.21589 37.6608 7.58769 37.6141 7.92093 37.4619L25.0833 29.5965V29.5947Z" stroke="#21272A" stroke-width="2" stroke-linecap="round" stroke-linejoin="round"/>
</g>
<defs>
<clipPath id="clip0_15_2117">
<rect width="43" height="43" fill="white"/>
</clipPath>
</defs>
</svg>
