<svg width="43" height="43" viewBox="0 0 43 43" fill="none" xmlns="http://www.w3.org/2000/svg">
<path fill-rule="evenodd" clip-rule="evenodd" d="M25.2772 4.37202C25.8733 4.53031 26.3726 4.93691 26.6484 5.48849C27.6881 7.5678 28.464 8.82979 29.2446 9.85301C30.0348 10.8887 30.8707 11.7366 32.1422 13.0081C35.0804 15.9464 36.5502 19.8018 36.5502 23.6501C36.5502 27.4984 35.0804 31.3537 32.1422 34.292C26.2648 40.1694 16.7356 40.1694 10.8582 34.292C7.91997 31.3537 6.4502 27.4984 6.4502 23.6501C6.45019 19.8018 7.91996 15.9464 10.8582 13.0081C11.4731 12.3932 12.3979 12.2092 13.2013 12.542C14.0047 12.8748 14.5285 13.6588 14.5285 14.5284C14.5285 16.936 14.6789 18.7705 15.383 20.2337C15.7702 21.0383 16.3743 21.825 17.4153 22.5269C17.6639 20.2463 18.1194 17.4676 18.7348 14.8302C19.2193 12.7537 19.8219 10.6806 20.5391 8.95186C20.8979 8.08718 21.3036 7.26385 21.7643 6.55299C22.2128 5.86105 22.789 5.15693 23.5328 4.66109C24.0459 4.31901 24.6812 4.21374 25.2772 4.37202ZM26.061 32.5108C23.5422 35.0297 19.4582 35.0297 16.9394 32.5108C15.6799 31.2514 15.0502 29.6007 15.0502 27.95C15.0502 27.95 16.9394 29.025 20.4253 29.025C20.4253 26.875 21.5003 20.425 23.1128 19.35C24.1878 21.5 24.8016 22.1297 26.061 23.3892C27.3205 24.6486 27.9502 26.2993 27.9502 27.95C27.9502 29.6007 27.3205 31.2514 26.061 32.5108Z" fill="#21272A"/>
</svg>
