<svg width="108" height="108" viewBox="0 0 108 108" fill="none" xmlns="http://www.w3.org/2000/svg">
<path fill-rule="evenodd" clip-rule="evenodd" d="M61.0237 5.6498C63.2716 6.35839 64.8002 8.44305 64.8002 10.8V37.8L86.4002 37.8C88.4138 37.8 90.26 38.9203 91.1899 40.7062C92.1198 42.4922 91.9788 44.6471 90.8241 46.2967L53.0241 100.297C51.6725 102.228 49.2247 103.059 46.9768 102.35C44.7289 101.642 43.2002 99.5569 43.2002 97.2L43.2002 70.2H21.6002C19.5867 70.2 17.7404 69.0797 16.8105 67.2938C15.8807 65.5078 16.0217 63.3528 17.1764 61.7033L54.9764 7.70329C56.328 5.77241 58.7758 4.94122 61.0237 5.6498Z" fill="#21272A"/>
</svg>
