<svg width="95" height="95" viewBox="0 0 95 95" fill="none" xmlns="http://www.w3.org/2000/svg">
<path d="M9.5 14.25C9.5 11.6266 11.6266 9.5 14.25 9.5H24.4761C26.7981 9.5 28.7798 11.1787 29.1615 13.4691L32.6733 34.5395C33.0161 36.5964 31.9773 38.6364 30.1121 39.5689L22.7585 43.2458C28.0609 56.422 38.578 66.9391 51.7542 72.2415L55.4311 64.8879C56.3636 63.0227 58.4036 61.9839 60.4605 62.3267L81.5309 65.8385C83.8213 66.2202 85.5 68.2019 85.5 70.5239V80.75C85.5 83.3734 83.3734 85.5 80.75 85.5H71.25C37.1464 85.5 9.5 57.8536 9.5 23.75V14.25Z" fill="#21272A"/>
</svg>
